<?xml version="1.0" encoding="UTF-8" standalone="no"?><!DOCTYPE svg PUBLIC "-//W3C//DTD SVG 1.1//EN" "http://www.w3.org/Graphics/SVG/1.1/DTD/svg11.dtd"><svg width="100%" height="100%" viewBox="0 0 1280 1024" version="1.1" xmlns="http://www.w3.org/2000/svg" xmlns:xlink="http://www.w3.org/1999/xlink" xml:space="preserve" xmlns:serif="http://www.serif.com/" style="fill-rule:evenodd;clip-rule:evenodd;stroke-linecap:round;stroke-linejoin:round;stroke-miterlimit:1.5;"><path d="M639.679,119.611c0.492,-0.002 0.985,-0.003 1.478,-0.003c191.798,0 347.514,150.793 347.514,336.528c0,185.735 -155.716,336.528 -347.514,336.528c-43.703,0 -85.532,-7.829 -124.072,-22.117l-143.458,121.952c-14.875,12.645 -35.752,15.464 -53.448,7.218c-17.695,-8.246 -28.964,-26.046 -28.849,-45.568l2.332,-394.482c-0.013,-1.175 -0.019,-2.352 -0.019,-3.531c0,-2.493 0.028,-4.98 0.084,-7.461l1.848,-312.547c0.054,-9.14 7.478,-16.52 16.618,-16.52l327.486,0l0,0.003Zm-157.694,241.598c-1.319,-10.877 1.263,-22.261 8.126,-31.886c0.003,-0.004 0.006,-0.007 0.009,-0.011c7.005,-9.824 17.625,-16.462 29.525,-18.455c11.9,-1.993 24.104,0.823 33.928,7.828l84.125,59.989l84.115,-59.982c8.597,-6.131 18.598,-8.845 28.388,-8.415c0.662,-0.029 1.328,-0.043 1.997,-0.043c0,0 0,0 0,0c25.133,0 45.507,20.374 45.507,45.507c0,58.375 0,159.035 0,217.411c0,25.133 -20.374,45.507 -45.507,45.507c0,0 0,0 0,0c-25.133,0 -45.507,-20.374 -45.507,-45.507l0,-131.892l-41.101,29.309c-8.162,5.82 -17.966,8.748 -27.875,8.429c-9.919,0.326 -19.737,-2.602 -27.908,-8.428l-37.141,-26.485l0,31.464c0.001,12.069 -4.794,23.644 -13.328,32.178c-8.534,8.534 -20.109,13.329 -32.179,13.329c0,0 0,0 0,0c-12.069,0 -23.644,-4.795 -32.178,-13.329c-8.534,-8.534 -13.329,-20.109 -13.329,-32.178c0,-32.581 0,-76.267 0,-108.847c0,-1.846 0.112,-3.68 0.333,-5.493Z" style="fill:#021e68;stroke:#000;stroke-opacity:0;stroke-width:7px;"/></svg>